<?xml version="1.0" encoding="UTF-8"?>
<svg xmlns="http://www.w3.org/2000/svg" viewBox="3700 10800 13600 8100" width="136" height="81">
 <defs>
  <style type="text/css">
   <![CDATA[
    .fil0 {fill:#10b981}
    .fil1 {fill:#ecfdf5}
   ]]>
  </style>
 </defs>
 <g id="Layer_x0020_1_0">
  <path class="fil0" d="M13259 18863c2217,0 4014,-1797 4014,-4015 0,-2217 -1797,-4014 -4014,-4014 -1605,0 -2990,942 -3634,2303l-1076 0c-33,0 -61,21 -72,51l0 0 0 0 -587 1583 -586 -1583 0 0 0 0c-11,-29 -39,-51 -72,-51l-1461 0 -1009 0 -958 0c-43,0 -77,35 -77,77l0 910c0,43 34,77 77,77l874 0 0 2307c0,47 39,85 85,85l1010 0c47,0 85,-38 85,-85l0 -2307 529 0 961 2339c13,31 43,53 79,53l318 0 296 0 318 0c35,0 66,-22 78,-53l821 -2025c-9,111 -14,222 -14,337 0,2217 1797,4014 4014,4014l1 -3z"/>
  <path class="fil1" d="M11045 16591l987 0c45,0 83,-37 83,-83l0 -852 169 0 612 935 1195 0c49,0 89,-39 89,-88 0,-19 -6,-36 -16,-50l-714 -1045c990,-554 759,-2291 -695,-2291l0 -3 -721 0 -987 0c-46,0 -83,38 -83,84l0 3309c0,46 37,84 83,84l-2 0zm3502 0l0 0 987 0c45,0 83,-37 83,-83l0 -3310c0,-45 -38,-83 -83,-83l-987 0c-46,0 -84,38 -84,83l0 3310c0,46 38,83 84,83zm-2432 -2576l0 0 290 0c201,0 474,60 474,420 0,362 -273,420 -474,420l-290 0 0 -420 0 -420z"/>
 </g>
</svg>
